<?xml version="1.0" encoding="UTF-8" standalone="no"?>
<svg
   xmlns:dc="http://purl.org/dc/elements/1.1/"
   xmlns:cc="http://creativecommons.org/ns#"
   xmlns:rdf="http://www.w3.org/1999/02/22-rdf-syntax-ns#"
   xmlns:svg="http://www.w3.org/2000/svg"
   xmlns="http://www.w3.org/2000/svg"
   xmlns:sodipodi="http://sodipodi.sourceforge.net/DTD/sodipodi-0.dtd"
   xmlns:inkscape="http://www.inkscape.org/namespaces/inkscape"
   width="24"
   height="24"
   viewBox="0 0 24 24"
   id="svg4185"
   version="1.1"
   inkscape:version="0.91 r13725"
   sodipodi:docname="boot.svg">
  <metadata
     id="metadata4195">
    <rdf:RDF>
      <cc:Work
         rdf:about="">
        <dc:format>image/svg+xml</dc:format>
        <dc:type
           rdf:resource="http://purl.org/dc/dcmitype/StillImage" />
        <dc:title></dc:title>
      </cc:Work>
    </rdf:RDF>
  </metadata>
  <defs
     id="defs4193" />
  <sodipodi:namedview
     pagecolor="#ffffff"
     bordercolor="#666666"
     borderopacity="1"
     objecttolerance="10"
     gridtolerance="10"
     guidetolerance="10"
     inkscape:pageopacity="0"
     inkscape:pageshadow="2"
     inkscape:window-width="1509"
     inkscape:window-height="1054"
     id="namedview4191"
     showgrid="false"
     inkscape:zoom="62.458333"
     inkscape:cx="7.7891931"
     inkscape:cy="8.7155246"
     inkscape:window-x="637"
     inkscape:window-y="1525"
     inkscape:window-maximized="0"
     inkscape:current-layer="svg4185" />
  <path
     d="M0 0h24v24H0z"
     fill="none"
     id="path4187" />
  <path
     d="M10.09 15.59L11.5 17l5-5-5-5-1.41 1.41L12.67 11H3v2h9.67l-2.58 2.59zM19 3H5c-1.11 0-2 .9-2 2v4h2V5h14v14H5v-4H3v4c0 1.1.89 2 2 2h14c1.1 0 2-.9 2-2V5c0-1.1-.9-2-2-2z"
     id="path4189"
     style="fill:#394f32;fill-opacity:1" />
</svg>
