<?xml version="1.0" encoding="UTF-8" standalone="no"?>
<svg
   xmlns:dc="http://purl.org/dc/elements/1.1/"
   xmlns:cc="http://creativecommons.org/ns#"
   xmlns:rdf="http://www.w3.org/1999/02/22-rdf-syntax-ns#"
   xmlns:svg="http://www.w3.org/2000/svg"
   xmlns="http://www.w3.org/2000/svg"
   xmlns:sodipodi="http://sodipodi.sourceforge.net/DTD/sodipodi-0.dtd"
   xmlns:inkscape="http://www.inkscape.org/namespaces/inkscape"
   width="48"
   height="48"
   viewBox="0 0 48 48"
   id="svg2"
   version="1.1"
   inkscape:version="0.91 r13725"
   sodipodi:docname="ic_notifications_off_48px.svg">
  <metadata
     id="metadata10">
    <rdf:RDF>
      <cc:Work
         rdf:about="">
        <dc:format>image/svg+xml</dc:format>
        <dc:type
           rdf:resource="http://purl.org/dc/dcmitype/StillImage" />
      </cc:Work>
    </rdf:RDF>
  </metadata>
  <defs
     id="defs8" />
  <sodipodi:namedview
     pagecolor="#ffffff"
     bordercolor="#666666"
     borderopacity="1"
     objecttolerance="10"
     gridtolerance="10"
     guidetolerance="10"
     inkscape:pageopacity="0"
     inkscape:pageshadow="2"
     inkscape:window-width="1920"
     inkscape:window-height="1058"
     id="namedview6"
     showgrid="false"
     inkscape:zoom="4.9166667"
     inkscape:cx="-26.847458"
     inkscape:cy="24"
     inkscape:window-x="0"
     inkscape:window-y="0"
     inkscape:window-maximized="1"
     inkscape:current-layer="svg2" />
  <path
     fill="#010101"
     d="M40 37.39L15.68 12.3l-5.13-5.29L8 9.55l5.6 5.6.01.01C12.56 17.14 12 19.48 12 22v10l-4 4v2h27.46l4 4L42 39.45l-2-2.06zM24 44c2.21 0 4-1.79 4-4h-8c0 2.21 1.79 4 4 4zm12-14.64V22c0-6.15-3.27-11.28-9-12.64V8c0-1.66-1.34-3-3-3s-3 1.34-3 3v1.36c-.29.07-.57.15-.85.24-.21.07-.41.14-.61.22 0 0-.01 0-.01.01-.01 0-.02.01-.03.01-.46.18-.91.39-1.35.62-.01 0-.02.01-.03.01L36 29.36z"
     id="path4"
     style="fill:#ffefb6;fill-opacity:1" />
</svg>
